GRF
version=1
nRows=21
nColumns=28
inDegrees=no
endheader
time	plate1_ground_force_vx	plate1_ground_force_vy	plate1_ground_force_vz	plate1_ground_force_px	plate1_ground_force_py	plate1_ground_force_pz	plate1_ground_torque_x	plate1_ground_torque_y	plate1_ground_torque_z	plate2_ground_force_vx	plate2_ground_force_vy	plate2_ground_force_vz	plate2_ground_force_px	plate2_ground_force_py	plate2_ground_force_pz	plate2_ground_torque_x	plate2_ground_torque_y	plate2_ground_torque_z	plate3_ground_force_vx	plate3_ground_force_vy	plate3_ground_force_vz	plate3_ground_force_px	plate3_ground_force_py	plate3_ground_force_pz	plate3_ground_torque_x	plate3_ground_torque_y	plate3_ground_torque_z
      0.63000000	      2.03014759	    503.43393070	    -12.34424220	      0.26486983	      0.00000000	      0.21650523	      0.00000000	      2.44638137	     -0.00000000	      0.00000000	      0.00000000	      0.00000000	      0.00000000	      0.00000000	      0.00000000	      0.00000000	      0.00000000	      0.00000000	      0.00000000	      0.00000000	      0.00000000	      0.00000000	      0.00000000	      0.00000000	      0.00000000	      0.00000000	      0.00000000
      0.64000000	      7.16344496	    513.32687757	    -12.39419822	      0.26777204	      0.00000000	      0.21632616	      0.00000000	      2.54418538	     -0.00000000	      0.00000000	      0.00000000	      0.00000000	      0.00000000	      0.00000000	      0.00000000	      0.00000000	      0.00000000	      0.00000000	      0.00000000	      0.00000000	      0.00000000	      0.00000000	      0.00000000	      0.00000000	      0.00000000	      0.00000000	      0.00000000
      0.65000000	     12.84324886	    524.84496546	    -12.23324180	      0.27013792	      0.00000000	      0.21610605	      0.00000000	      2.68428038	     -0.00000000	      0.00000000	      0.00000000	      0.00000000	      0.00000000	      0.00000000	      0.00000000	      0.00000000	      0.00000000	      0.00000000	      0.00000000	      0.00000000	      0.00000000	      0.00000000	      0.00000000	      0.00000000	      0.00000000	      0.00000000	      0.00000000
      0.66000000	     19.04550172	    537.77322704	    -11.96597227	      0.27205952	      0.00000000	      0.21589245	      0.00000000	      2.85664671	     -0.00000000	      0.00000000	      0.00000000	      0.00000000	      0.00000000	      0.00000000	      0.00000000	      0.00000000	      0.00000000	      0.00000000	      0.00000000	      0.00000000	      0.00000000	      0.00000000	      0.00000000	      0.00000000	      0.00000000	      0.00000000	      0.00000000
      0.67000000	     25.73982685	    551.75054180	    -11.73079016	      0.27363585	      0.00000000	      0.21573166	      0.00000000	      3.04323402	     -0.00000000	      0.00000000	      0.00000000	      0.00000000	      0.00000000	      0.00000000	      0.00000000	      0.00000000	      0.00000000	      0.00000000	      0.00000000	      0.00000000	      0.00000000	      0.00000000	      0.00000000	      0.00000000	      0.00000000	      0.00000000	      0.00000000
      0.68000000	     32.89530641	    566.27482416	    -11.66313486	      0.27495928	      0.00000000	      0.21566133	      0.00000000	      3.22167023	     -0.00000000	      0.00000000	      0.00000000	      0.00000000	      0.00000000	      0.00000000	      0.00000000	      0.00000000	      0.00000000	      0.00000000	      0.00000000	      0.00000000	      0.00000000	      0.00000000	      0.00000000	      0.00000000	      0.00000000	      0.00000000	      0.00000000
      0.69000000	     40.48264037	    580.72830619	    -11.86144046	      0.27610621	      0.00000000	      0.21570552	      0.00000000	      3.36971579	     -0.00000000	      0.00000000	      0.00000000	      0.00000000	      0.00000000	      0.00000000	      0.00000000	      0.00000000	      0.00000000	      0.00000000	      0.00000000	      0.00000000	      0.00000000	      0.00000000	      0.00000000	      0.00000000	      0.00000000	      0.00000000	      0.00000000
      0.70000000	     48.46950414	    594.41732346	    -12.36729567	      0.27713392	      0.00000000	      0.21587308	     -0.00000000	      3.46886260	     -0.00000000	      0.00000000	      0.00000000	      0.00000000	      0.00000000	      0.00000000	      0.00000000	      0.00000000	      0.00000000	      0.00000000	      0.00000000	      0.00000000	      0.00000000	      0.00000000	      0.00000000	      0.00000000	      0.00000000	      0.00000000	      0.00000000
      0.71000000	     56.80960983	    606.61311095	    -13.16409299	      0.27808308	      0.00000000	      0.21615913	     -0.00000000	      3.50617872	     -0.00000000	      0.00000000	      0.00000000	      0.00000000	      0.00000000	      0.00000000	      0.00000000	      0.00000000	      0.00000000	      0.00000000	      0.00000000	      0.00000000	      0.00000000	      0.00000000	      0.00000000	      0.00000000	      0.00000000	      0.00000000	      0.00000000
      0.72000000	     65.42949678	    616.57814290	    -14.18985417	      0.27898288	      0.00000000	      0.21654901	     -0.00000000	      3.47452671	     -0.00000000	      0.00000000	      0.00000000	      0.00000000	      0.00000000	      0.00000000	      0.00000000	      0.00000000	      0.00000000	      0.00000000	      0.00000000	      0.00000000	      0.00000000	      0.00000000	      0.00000000	      0.00000000	      0.00000000	      0.00000000	      0.00000000
      0.73000000	     74.21757376	    623.56921935	    -15.35449365	      0.27985566	      0.00000000	      0.21702327	     -0.00000000	      3.37199717	     -0.00000000	      0.00000000	      0.00000000	      0.00000000	      0.00000000	      0.00000000	      0.00000000	      0.00000000	      0.00000000	      0.00000000	      0.00000000	      0.00000000	      0.00000000	      0.00000000	      0.00000000	      0.00000000	      0.00000000	      0.00000000	      0.00000000
      0.74000000	     83.01696730	    626.82133882	    -16.55206856	      0.28071961	      0.00000000	      0.21756217	     -0.00000000	      3.20145099	     -0.00000000	      0.00000000	      0.00000000	      0.00000000	      0.00000000	      0.00000000	      0.00000000	      0.00000000	      0.00000000	      0.00000000	      0.00000000	      0.00000000	      0.00000000	      0.00000000	      0.00000000	      0.00000000	      0.00000000	      0.00000000	      0.00000000
      0.75000000	     91.61978155	    625.52853750	    -17.66406613	      0.28159002	      0.00000000	      0.21814809	     -0.00000000	      2.97054128	     -0.00000000	      0.00000000	      0.00000000	      0.00000000	      0.96971262	      0.00000000	      0.16861775	      0.00000000	      0.00000000	      0.00000000	      0.00000000	      0.00000000	      0.00000000	      0.00000000	      0.00000000	      0.00000000	      0.00000000	      0.00000000	      0.00000000
      0.76000000	     99.75889698	    618.84240217	    -18.55737591	      0.28248100	      0.00000000	      0.21876516	     -0.00000000	      2.69188785	     -0.00000000	      0.00000000	      0.00000000	      0.00000000	      0.96971262	      0.00000000	      0.16861775	      0.00000000	      0.00000000	      0.00000000	      0.00000000	      0.00000000	      0.00000000	      0.00000000	      0.00000000	      0.00000000	      0.00000000	      0.00000000	      0.00000000
      0.77000000	    107.09622014	    605.90417259	    -19.08599897	      0.28340982	      0.00000000	      0.21939648	      0.00000000	      2.38265958	     -0.00000000	      0.00000000	      0.00000000	      0.00000000	      0.96971262	      0.00000000	      0.16861775	      0.00000000	      0.00000000	      0.00000000	      0.00000000	      0.00000000	      0.00000000	      0.00000000	      0.00000000	      0.00000000	      0.00000000	      0.00000000	      0.00000000
      0.78000000	    113.21231650	    585.91721124	    -19.10534475	      0.28440584	      0.00000000	      0.22001988	      0.00000000	      2.06294479	     -0.00000000	     -4.33746554	     70.26770125	     -5.09612044	      0.96532401	      0.00000000	      0.16747452	     -0.00000000	     -0.69631785	     -0.00000000	      0.00000000	      0.00000000	      0.00000000	      0.00000000	      0.00000000	      0.00000000	      0.00000000	      0.00000000	      0.00000000
      0.79000000	    117.60857128	    558.25973095	    -18.50150776	      0.28552506	      0.00000000	      0.22060248	      0.00000000	      1.75289067	     -0.00000000	     -8.40607884	    103.84036876	     -7.02695204	      0.95156303	      0.00000000	      0.16378849	     -0.00000000	     -0.72428305	     -0.00000000	      0.00000000	      0.00000000	      0.00000000	      0.00000000	      0.00000000	      0.00000000	      0.00000000	      0.00000000	      0.00000000
      0.80000000	    119.73601827	    522.63357700	    -17.22812940	      0.28686972	      0.00000000	      0.22109332	      0.00000000	      1.46931718	     -0.00000000	    -14.67981310	    143.92376878	     -8.79676817	      0.93718343	      0.00000000	      0.15969633	     -0.00000000	     -0.75296110	     -0.00000000	      0.00000000	      0.00000000	      0.00000000	      0.00000000	      0.00000000	      0.00000000	      0.00000000	      0.00000000	      0.00000000
      0.81000000	    119.06206334	    479.23636448	    -15.33576607	      0.28860834	      0.00000000	      0.22141348	      0.00000000	      1.22292386	     -0.00000000	    -23.40489813	    188.53524662	     -9.93858991	      0.92396809	      0.00000000	      0.15554053	     -0.00000000	     -0.77848013	     -0.00000000	      0.00000000	      0.00000000	      0.00000000	      0.00000000	      0.00000000	      0.00000000	      0.00000000	      0.00000000	      0.00000000
      0.82000000	    115.17598083	    428.92493298	    -12.97814639	      0.29098523	      0.00000000	      0.22144610	      0.00000000	      1.01705508	     -0.00000000	    -34.42468722	    235.42119735	    -10.00562225	      0.91355039	      0.00000000	      0.15166157	      0.00000000	     -0.79715932	     -0.00000000	      0.00000000	      0.00000000	      0.00000000	      0.00000000	      0.00000000	      0.00000000	      0.00000000	      0.00000000	      0.00000000
      0.83000000	    107.91686903	    373.31362543	    -10.38771967	      0.29430410	      0.00000000	      0.22103348	      0.00000000	      0.84836630	     -0.00000000	    -47.13922588	    282.69360041	     -8.71525383	      0.90693088	      0.00000000	      0.14831302	      0.00000000	     -0.80623037	     -0.00000000	      0.00000000	      0.00000000	      0.00000000	      0.00000000	      0.00000000	      0.00000000	      0.00000000	      0.00000000	      0.00000000
